<?xml version="1.0" encoding="UTF-8"?><svg xmlns="http://www.w3.org/2000/svg" xmlns:xlink="http://www.w3.org/1999/xlink" height="268.7" preserveAspectRatio="xMidYMid meet" version="1.0" viewBox="-2.2 -0.0 269.3 268.7" width="269.3" zoomAndPan="magnify"><g id="change1_1"><path d="m138.375,2.539v52.056c26.683,2.94 58.81.439 87.604,1.269-5.462-12.229-16.686-22.298-27.932-29.201-9.081-5.575-20.839-9.101-31.74-12.696-2.934,4.261-.445,13.944-1.27,20.314 12.972.231 28.942,1.657 30.47,11.427h-41.898v-44.438c22.741,1.996 40.824,12.09 55.865,22.853 14.328,10.252 29.842,22.885 35.55,41.898-9.847,2.85-24.886.505-36.819,1.27-2.354,2.726-.858,9.301-1.269,13.966 13.725,2.779 32.452.558 48.244,1.27 6.958,17.827 11.852,40.775 8.889,64.751-11.271.487-15.876.034-27.932,0-3.989,1.936-2.114,9.736-2.539,15.236 5.351,2.219 19.757-2.502 26.663,1.27-3.308,17.007-9.724,30.905-20.314,40.627-14.447-.786-32.085,1.616-44.439-1.27-3.194,6.323-.957,10.192-2.538,17.774 5.523,4.188 18.45-.21 31.74,1.271 .109,4.773-6.263,9.504-10.155,12.698-15.725,12.895-42.903,26.331-69.832,29.2-43.126,4.593-85.117-15.493-104.11-39.359 8.825-2.601 22.169-.683 33.01-1.27 2.926-3.422.451-12.244 1.27-17.773-14.602-2.154-36.129-1.861-50.786,0-10.402-8.641-13.687-24.4-17.772-39.359 9.097,1.224 13.466.618 22.852,0 2.921-3.006.455-11.396 1.271-16.507-13.387-.433-17.562,1.163-29.202,1.27-3.49-24.475.583-50.562 8.888-67.29h54.594c1.221-3.343 2.453-10.876 0-13.966-13.126-2.957-31.738-.427-46.977-1.27 2.102-10.755 12.167-18.59 19.045-26.662 6.515-7.648 11.676-12.206 21.584-19.045 13.767-9.508 31.241-20.587 55.86-20.314v43.168c-14.1-1.06-30.035,1.656-40.629,0 5.039-11.122 15.765-13.371 29.203-10.158 2.286-4.447 1.868-17.068 0-21.583-28.628,6.499-50.437,19.816-63.482,41.897 27.895,3.428 64.102.003 88.874,0 1.365-12.087-1.972-38.825 1.27-55.863 2.89.919 6.485,1.131 8.889,2.539zm-63.485,66.021v12.696c17.464,4.246 36.155,1.082 58.405,1.27 18.23.154 40.838-.006 62.211,0v-15.236c-43.208-.02-78.678-.045-120.616,1.27zm-58.403,26.663c-4.282,11.799-5.752,26.411-5.077,43.167h19.044c-.213-10.369.547-19.766 2.54-27.933 56.56-.739 105.695-1.269 168.861-1.269 10.77,0 22.922-2.005 33.013,2.54v24.123c6.187-.583 14.871,1.329 19.041-1.269-.394-14.842-2.653-27.819-6.347-39.36-79.934-1.722-146.185.528-231.075.001zm24.124,25.393v17.774c12.313,1.71 24.528-4.272 33.01,1.27-1.848,6.281 1.111,15.92 0,25.394 17.997-3.371 37.375,1.256 55.864-2.539-.699-1.563.547-9.994-1.27-13.967h-40.627v-11.426c5.292,1.35 5.6.327 11.426,0v-16.506c-12.896-1.655-41.601-2.328-58.403,0zm67.291,0c-2.907,4.826.123,12.948 1.27,17.774 18.392.286 27.258-2.09 46.977-1.269 2.5-3.428.756-11.095 1.271-16.506-18.269-2.34-34.709-1.093-49.518.001zm58.404,15.235c1.605,3.049 10.013-.701 11.426,2.539v10.157h-38.089c-.464,6.981-1.296,8.67 0,15.236 18.39-.657 39.519,1.43 55.863-1.27 .009-4.77-1.133-19.063 1.27-25.393 6.959-2.777 18.91-.561 27.933-1.271-.512-5.411 1.229-13.079-1.27-16.505h-58.402c.328,5.599 2.029,9.822 1.269,16.507zm39.36,12.696c-3.387,5.502.686,18.463-2.541,24.122-29.871,2.403-56.216,2.539-85.066,2.539-18.229,0-37,2.054-54.594-2.539v-21.584c-5.345-2.696-15.466-.616-22.854-1.27-.832,8.057 1.673,19.45-1.27,25.393-6.232,3.179-13.095-.466-19.045,1.271 1.002,7.041 3.951,12.132 7.618,16.506 71.488-.304 148.201.894 210.762-1.27 1.074-6.965 5.269-10.81 6.347-17.776-6.585-.61-15.757,1.369-20.314-1.27 .941-7.944-.424-13.896 0-24.122-5.159-.84-13.471-.891-19.043,0zm-120.617,55.864c-1.792,7.163.406,10.496 0,19.045 32.799-.633 68.266,1.4 99.032-1.27v-17.775c-35.083-.278-63.241-.033-99.032,0zm-15.237,30.473c25.312,25.598 97.585,24.626 123.156,0-39.437-1.763-76.662.991-123.156,0z" fill="#bf0000" fill-rule="evenodd"/></g></svg>